<svg width="275" height="84" viewBox="0 0 275 84" fill="none" xmlns="http://www.w3.org/2000/svg">
<path d="M43.7906 1.05542L29.0403 36.6676L14.2901 1.05542H0L21.876 53.8703H21.9173H36.1661H36.2074L58.0834 1.05542H43.7906Z" fill="#232323"/>
<path d="M167.009 1.05542H150.365L138.426 16.6185L126.486 1.05542H109.843L130.104 27.4642L109.843 53.8703H126.486L138.426 38.3072L150.365 53.8703H167.009L146.747 27.4642L167.009 1.05542Z" fill="#232323"/>
<path d="M84.8809 13.2044C92.7423 13.2044 99.1406 19.5999 99.1406 27.4642C99.1406 35.3284 92.7451 41.7239 84.8809 41.7239C77.0166 41.7239 70.6211 35.3284 70.6211 27.4642C70.6211 19.5999 77.0166 13.2044 84.8809 13.2044ZM84.8809 0C69.7145 0 57.4194 12.2951 57.4194 27.4642C57.4194 42.6333 69.7145 54.9284 84.8809 54.9284C100.047 54.9284 112.342 42.6333 112.342 27.4642C112.342 12.2951 100.047 0 84.8809 0Z" fill="#5A6EFF"/>
<path d="M204.773 33.4161C202.514 38.3126 197.559 41.7212 191.822 41.7212C183.961 41.7212 177.563 35.3257 177.563 27.4614C177.563 19.5972 183.958 13.2017 191.822 13.2017C197.559 13.2017 202.514 16.6102 204.773 21.5068L216.779 15.9902C212.433 6.55261 202.894 0 191.822 0C176.656 0 164.361 12.2951 164.361 27.4642C164.361 42.6333 176.656 54.9284 191.822 54.9284C202.894 54.9284 212.433 48.3758 216.779 38.9381L204.773 33.4216V33.4161Z" fill="#232323"/>
<path d="M247.539 54.9255C262.705 54.9255 275 42.6306 275 27.4641C275 12.2976 262.705 0.00268555 247.539 0.00268555C232.372 0.00268555 220.077 12.2976 220.077 27.4641C220.077 42.6306 232.372 54.9255 247.539 54.9255Z" fill="#5A6EFF"/>
<path d="M84.2744 69.5547L79.8628 80.2764H81.731L82.5549 78.2097H87.1621L87.9778 80.2764H89.8763L85.4951 69.5547H84.2689H84.2744ZM83.1667 76.6777L84.8696 72.4039L86.5587 76.6777H83.1667Z" fill="#232323"/>
<path d="M96.2227 73.1919C95.7928 72.9108 95.3023 72.7703 94.7512 72.7703C94.2001 72.7703 93.7234 72.8943 93.288 73.145C93.0042 73.3103 92.7645 73.517 92.5606 73.7595V72.9218H90.877V80.2735H92.5606V76.03C92.5606 75.7049 92.6322 75.4128 92.7755 75.1565C92.9188 74.903 93.1172 74.7019 93.3734 74.5586C93.6297 74.4153 93.919 74.3437 94.2469 74.3437C94.7374 74.3437 95.137 74.5035 95.4484 74.8176C95.7597 75.1345 95.914 75.5368 95.914 76.0273V80.2708H97.5976V75.6608C97.5976 75.1813 97.4764 74.7184 97.2312 74.2748C96.9859 73.8311 96.6498 73.4674 96.2199 73.1863L96.2227 73.1919Z" fill="#232323"/>
<path d="M100.783 74.4566C100.967 74.3547 101.226 74.3023 101.563 74.3023C101.921 74.3023 102.238 74.3685 102.513 74.5007C102.789 74.633 103.034 74.8341 103.249 75.0987L104.321 74.0268C104.015 73.6079 103.635 73.2938 103.18 73.0844C102.725 72.875 102.202 72.7703 101.609 72.7703C101.047 72.7703 100.565 72.8612 100.163 73.0458C99.7605 73.2304 99.4491 73.4895 99.2287 73.8284C99.0082 74.1646 98.898 74.5696 98.898 75.0381C98.898 75.4762 98.989 75.8344 99.1736 76.1099C99.3582 76.3855 99.5952 76.6032 99.8845 76.7602C100.177 76.9173 100.482 77.0441 100.805 77.135C101.127 77.2259 101.433 77.3169 101.722 77.4023C102.015 77.4877 102.251 77.5924 102.433 77.7164C102.618 77.8377 102.709 78.0112 102.709 78.2372C102.709 78.4631 102.612 78.6147 102.417 78.7277C102.224 78.8407 101.937 78.8958 101.56 78.8958C101.141 78.8958 100.766 78.8214 100.436 78.6753C100.105 78.5265 99.8101 78.3061 99.5538 78.0085L98.4819 79.0804C98.7162 79.367 98.9917 79.6094 99.3086 79.8078C99.6255 80.0062 99.9727 80.1605 100.35 80.268C100.728 80.3755 101.122 80.4278 101.53 80.4278C102.386 80.4278 103.067 80.2184 103.566 79.7996C104.065 79.3807 104.315 78.8131 104.315 78.0994C104.315 77.6503 104.224 77.2838 104.04 77.0055C103.855 76.7244 103.618 76.5012 103.329 76.3304C103.037 76.1623 102.731 76.03 102.411 75.9308C102.089 75.8344 101.783 75.7435 101.491 75.6636C101.199 75.5809 100.962 75.4844 100.78 75.3715C100.595 75.2585 100.504 75.1014 100.504 74.8975C100.504 74.7046 100.595 74.5558 100.78 74.4539L100.783 74.4566Z" fill="#232323"/>
<path d="M112.555 77.5676L110.868 72.9246H109.89L108.204 77.5676L106.473 72.9246H104.729L107.683 80.2763H108.664L110.381 75.895L112.094 80.2763H113.075L116.032 72.9246H114.285L112.555 77.5676Z" fill="#232323"/>
<path d="M121.673 73.2442C121.146 72.9273 120.543 72.7703 119.857 72.7703C119.171 72.7703 118.512 72.9384 117.933 73.2745C117.357 73.6107 116.9 74.0681 116.564 74.644C116.228 75.2199 116.06 75.873 116.06 76.5977C116.06 77.3224 116.23 77.9754 116.572 78.5568C116.914 79.1382 117.379 79.5957 117.966 79.9291C118.553 80.2597 119.215 80.4278 119.95 80.4278C120.521 80.4278 121.064 80.3204 121.573 80.1054C122.083 79.8905 122.518 79.5736 122.874 79.1548L121.802 78.0664C121.576 78.3226 121.303 78.5155 120.984 78.6478C120.664 78.78 120.311 78.8462 119.934 78.8462C119.496 78.8462 119.107 78.7525 118.771 78.5623C118.435 78.375 118.173 78.1049 117.991 77.7577C117.903 77.5924 117.837 77.4133 117.793 77.2204H123.276C123.307 77.0661 123.329 76.9256 123.345 76.7988C123.362 76.6721 123.367 76.5453 123.367 76.4241C123.367 75.7187 123.216 75.0932 122.915 74.5393C122.615 73.9882 122.202 73.5528 121.675 73.2387L121.673 73.2442ZM117.975 75.366C118.148 75.0353 118.393 74.7763 118.71 74.5917C119.027 74.407 119.399 74.3161 119.829 74.3161C120.259 74.3161 120.581 74.3988 120.862 74.5613C121.143 74.7239 121.361 74.9581 121.513 75.2668C121.598 75.4376 121.662 75.6332 121.706 75.8482H117.798C117.842 75.6746 117.897 75.512 117.975 75.366Z" fill="#232323"/>
<path d="M129.14 72.9716C128.842 72.8393 128.512 72.7732 128.145 72.7732C127.307 72.7732 126.682 73.0625 126.269 73.6384C126.255 73.6577 126.244 73.677 126.23 73.699V72.9275H124.546V80.2792H126.23V76.19C126.23 75.5563 126.384 75.0933 126.69 74.7957C126.996 74.5009 127.385 74.3521 127.853 74.3521C128.068 74.3521 128.255 74.3824 128.421 74.4458C128.583 74.5064 128.732 74.6084 128.864 74.7516L129.966 73.6191C129.71 73.3243 129.435 73.1094 129.14 72.9771V72.9716Z" fill="#232323"/>
<path d="M137.993 69.5547L133.582 80.2764H135.45L136.274 78.2097H140.881L141.697 80.2764H143.595L139.214 69.5547H137.988H137.993ZM136.885 76.6777L138.588 72.4039L140.277 76.6777H136.885Z" fill="#232323"/>
<path d="M149.941 73.1919C149.511 72.9108 149.021 72.7703 148.469 72.7703C147.918 72.7703 147.442 72.8943 147.006 73.145C146.722 73.3103 146.483 73.517 146.279 73.7595V72.9218H144.595V80.2735H146.279V76.03C146.279 75.7049 146.35 75.4128 146.494 75.1565C146.637 74.903 146.835 74.7019 147.092 74.5586C147.348 74.4153 147.637 74.3437 147.965 74.3437C148.456 74.3437 148.855 74.5035 149.167 74.8176C149.478 75.1345 149.632 75.5368 149.632 76.0273V80.2708H151.316V75.6608C151.316 75.1813 151.195 74.7184 150.949 74.2748C150.704 73.8311 150.368 73.4674 149.938 73.1863L149.941 73.1919Z" fill="#232323"/>
<path d="M155.436 77.7136L153.554 72.9246H151.699L154.493 79.535L152.65 83.3376H154.518L155.879 80.3507L159.296 72.9246H157.428L155.436 77.7136Z" fill="#232323"/>
<path d="M163.275 69.8606H161.589V72.9247H159.828V74.4568H161.589V80.2764H163.275V74.4568H165.036V72.9247H163.275V69.8606Z" fill="#232323"/>
<path d="M171.266 73.1396C170.836 72.8943 170.349 72.7731 169.795 72.7731C169.241 72.7731 168.767 72.8971 168.331 73.1478C168.048 73.3132 167.808 73.5198 167.604 73.7623V69.2488H165.92V80.2763H167.604V76.0328C167.604 75.7077 167.676 75.4156 167.819 75.1594C167.962 74.9058 168.161 74.7047 168.417 74.5614C168.673 74.4181 168.962 74.3465 169.29 74.3465C169.781 74.3465 170.18 74.5063 170.492 74.8204C170.803 75.1373 170.96 75.5396 170.96 76.0301V80.2736H172.644V75.6636C172.644 75.0932 172.523 74.589 172.277 74.1563C172.032 73.7237 171.696 73.3821 171.266 73.1368V73.1396Z" fill="#232323"/>
<path d="M175.879 72.9246H174.195V80.2763H175.879V72.9246Z" fill="#232323"/>
<path d="M175.038 69.5547C174.752 69.5547 174.515 69.6511 174.327 69.8468C174.137 70.0397 174.043 70.2794 174.043 70.566C174.043 70.8525 174.137 71.0923 174.327 71.2852C174.517 71.4808 174.754 71.5772 175.038 71.5772C175.322 71.5772 175.576 71.4808 175.757 71.2852C175.942 71.0923 176.033 70.8525 176.033 70.566C176.033 70.2794 175.942 70.0397 175.757 69.8468C175.573 69.6539 175.333 69.5547 175.038 69.5547Z" fill="#232323"/>
<path d="M182.889 73.1919C182.459 72.9108 181.971 72.7703 181.417 72.7703C180.863 72.7703 180.389 72.8943 179.954 73.145C179.67 73.3103 179.43 73.517 179.227 73.7595V72.9218H177.543V80.2735H179.227V76.03C179.227 75.7049 179.298 75.4128 179.442 75.1565C179.585 74.903 179.783 74.7019 180.039 74.5586C180.296 74.4153 180.585 74.3437 180.913 74.3437C181.403 74.3437 181.803 74.5035 182.114 74.8176C182.426 75.1345 182.583 75.5368 182.583 76.0273V80.2708H184.266V75.6608C184.266 75.1813 184.145 74.7184 183.9 74.2748C183.655 73.8311 183.319 73.4674 182.889 73.1863V73.1919Z" fill="#232323"/>
<path d="M191.089 72.9246V73.7044C190.885 73.4729 190.643 73.2773 190.353 73.123C189.915 72.8888 189.403 72.7703 188.821 72.7703C188.168 72.7703 187.579 72.9301 187.052 73.2525C186.526 73.5749 186.113 74.0102 185.812 74.5613C185.512 75.1124 185.36 75.7352 185.36 76.4296C185.36 77.124 185.512 77.7522 185.812 78.3144C186.113 78.8765 186.526 79.3174 187.052 79.6398C187.579 79.9621 188.168 80.122 188.821 80.122C189.392 80.122 189.899 80.0035 190.337 79.7693C190.632 79.6122 190.877 79.411 191.086 79.1713V79.9677C191.086 80.5601 190.893 81.0258 190.505 81.3702C190.116 81.7119 189.59 81.8827 188.929 81.8827C188.397 81.8827 187.942 81.7918 187.565 81.6072C187.187 81.4226 186.851 81.147 186.553 80.7805L185.451 81.8827C185.81 82.3925 186.278 82.7893 186.859 83.0704C187.441 83.3514 188.121 83.492 188.896 83.492C189.67 83.492 190.334 83.3432 190.918 83.0483C191.5 82.7507 191.954 82.3402 192.282 81.8139C192.607 81.2876 192.773 80.6731 192.773 79.9677V72.9218H191.089V72.9246ZM190.232 78.2703C189.926 78.4439 189.568 78.5293 189.16 78.5293C188.752 78.5293 188.391 78.4439 188.08 78.2703C187.769 78.0967 187.526 77.8514 187.353 77.5345C187.179 77.2177 187.094 76.8567 187.094 76.4461C187.094 76.0355 187.179 75.6636 187.353 75.3494C187.526 75.0381 187.769 74.7956 188.08 74.622C188.391 74.4484 188.752 74.3602 189.16 74.3602C189.568 74.3602 189.926 74.4484 190.232 74.622C190.538 74.7956 190.775 75.0381 190.943 75.3494C191.111 75.6608 191.197 76.0273 191.197 76.4461C191.197 76.865 191.111 77.2287 190.943 77.5401C190.775 77.8514 190.538 78.0939 190.232 78.2675V78.2703Z" fill="#232323"/>
</svg>
