<svg xmlns="http://www.w3.org/2000/svg" fill="none" viewBox="0 0 170 43">
  <path fill="#6C16C7" fill-rule="evenodd" d="M35.06.288c3.118.569 5.538 2.109 7.224 4.694 2.439 3.776 2.934 8.855 2.567 14.116-.422 5.28-1.723 10.762-4.308 15.529-2.659 4.711-6.454 7.755-12.009 8.085-5.426.385-12.613-1.962-18.975-6.692C3.198 31.272-.249 25.607.356 20.51c.458-5.17 4.968-9.79 11.385-13.713C17.736 3.24 23.988.893 29.139.233v16.005c-1.631-1.54-3.611-2.401-6.086-2.401a9.553 9.553 0 0 0-6.875 2.896c-1.944 1.999-3.025 4.822-3.025 8.159 0 3.3 1.1 6.105 3.061 8.103 1.815 1.852 4.29 2.897 6.839 2.897 2.475 0 4.455-.88 6.086-2.512v2.108h5.922V.288ZM24.154 30.575c2.805 0 5.06-2.383 5.06-5.665v-.073c0-3.3-2.255-5.665-5.06-5.665-2.897 0-5.024 2.255-5.024 5.665v.073c0 3.337 2.2 5.665 5.024 5.665Z" clip-rule="evenodd"/>
  <path fill="#676767" d="M67.694 29.218c-2.786 0-5.17-2.31-5.17-5.848v-.073c0-3.63 2.347-5.849 5.17-5.849 2.75 0 5.207 2.31 5.207 5.849v.073c0 3.502-2.457 5.848-5.207 5.848Zm9.259-22h-4.125v9.827c-1.302-1.687-3.172-3.208-6.124-3.208-4.29 0-8.341 3.428-8.341 9.478v.073c0 6.05 4.125 9.479 8.341 9.479 2.934 0 4.804-1.522 6.124-3.429v3.044h4.125V7.218ZM82.93 14.204h-.166c-1.1 0-1.98.898-1.98 2.016v16.262h4.125V16.22c0-1.1-.88-2.016-1.98-2.016Zm.017-6.766h-.201c-1.082 0-1.962.899-1.962 1.999s.88 1.998 1.962 1.998h.202c1.081 0 1.961-.898 1.961-1.998 0-1.119-.88-1.999-1.962-1.999ZM94.571 13.892c-3.575 0-6.398 2.108-6.398 5.573v.073c0 3.502 2.97 4.602 5.628 5.354.147.037.275.091.422.128 1.943.605 3.593 1.1 3.593 2.42v.073c0 1.21-1.026 1.98-2.786 1.98-1.834 0-3.942-.77-5.885-2.255L87.31 30.08c2.255 1.797 5.079 2.732 7.627 2.732 3.74 0 6.673-1.907 6.673-5.738V27c0-3.282-2.97-4.491-5.591-5.335-.11-.037-.239-.073-.349-.11-1.961-.642-3.703-1.21-3.703-2.438v-.073c0-1.082.917-1.834 2.512-1.834 1.503 0 3.336.66 5.078 1.723l1.632-2.97c-1.907-1.264-4.364-2.071-6.619-2.071ZM112.575 13.837c-5.39 0-9.332 4.363-9.332 9.551v.074c0 5.188 3.942 9.441 9.295 9.441 3.502 0 5.592-1.411 7.352-3.428l-2.493-2.493c-1.302 1.356-2.732 2.291-4.675 2.291-3.172 0-5.39-2.621-5.39-5.885v-.073c0-3.19 2.181-5.812 5.17-5.812 2.071 0 3.41.935 4.675 2.292l2.548-2.805c-1.632-1.888-3.74-3.153-7.15-3.153ZM138.077 14.203h-4.125v10.304c0 2.841-1.669 4.528-4.052 4.528-2.457 0-3.85-1.632-3.85-4.455V14.203h-4.125v11.624c0 4.253 2.347 7.021 6.398 7.021 2.787 0 4.455-1.485 5.629-3.208v2.842h4.125V14.203ZM147.536 13.892c-3.575 0-6.398 2.108-6.398 5.573v.073c0 3.502 2.97 4.602 5.628 5.354.147.037.275.091.422.128 1.943.605 3.593 1.1 3.593 2.42v.073c0 1.21-1.026 1.98-2.786 1.98-1.834 0-3.942-.77-5.885-2.255l-1.834 2.842c2.255 1.797 5.079 2.732 7.627 2.732 3.74 0 6.673-1.907 6.673-5.738V27c0-3.282-2.97-4.491-5.591-5.335-.11-.037-.239-.073-.349-.11-1.961-.642-3.703-1.21-3.703-2.438v-.073c0-1.082.917-1.834 2.512-1.834 1.503 0 3.336.66 5.078 1.723l1.632-2.97c-1.907-1.264-4.364-2.071-6.619-2.071ZM162.68 13.892c-3.575 0-6.399 2.108-6.399 5.573v.073c0 3.502 2.97 4.602 5.629 5.354.146.037.293.091.421.128 1.944.605 3.594 1.1 3.594 2.42v.073c0 1.21-1.027 1.98-2.787 1.98-1.833 0-3.942-.77-5.885-2.255l-1.833 2.842c2.255 1.797 5.078 2.732 7.626 2.732 3.74 0 6.674-1.907 6.674-5.738V27c0-3.282-2.97-4.491-5.592-5.335-.073-.018-.147-.055-.238-.073l-.129-.037c-1.961-.642-3.703-1.21-3.703-2.438v-.073c0-1.082.917-1.834 2.512-1.834 1.503 0 3.336.66 5.078 1.723l1.632-2.97c-1.889-1.264-4.345-2.071-6.6-2.071Z"/>
</svg>
