<svg xmlns="http://www.w3.org/2000/svg" xmlns:xlink="http://www.w3.org/1999/xlink" viewBox="757 690 437 601" preserveAspectRatio="xMidYMid meet" version="1.0"><defs><clipPath id="67bdaf4fc4"><path d="M 0.105469 0 L 449.933594 0 L 449.933594 599.769531 L 0.105469 599.769531 Z M 0.105469 0 " clip-rule="nonzero"/></clipPath><clipPath id="a77a57ff3e"><path d="M 669.125 0 L 1193.921875 0 L 1193.921875 599.769531 L 669.125 599.769531 Z M 669.125 0 " clip-rule="nonzero"/></clipPath><clipPath id="ee5c7be656"><path d="M 18.097656 690.804688 L 449.933594 690.804688 L 449.933594 1290.574219 L 18.097656 1290.574219 Z M 18.097656 690.804688 " clip-rule="nonzero"/></clipPath><clipPath id="80ccbb7f8a"><path d="M 757.589844 690.804688 L 1193.921875 690.804688 L 1193.921875 1290.574219 L 757.589844 1290.574219 Z M 757.589844 690.804688 " clip-rule="nonzero"/></clipPath></defs><g clip-path="url(#67bdaf4fc4)"><path fill="#030309" d="M 424.941406 99.960938 L 424.941406 74.972656 L 399.953125 74.972656 L 399.953125 49.980469 L 374.960938 49.980469 L 374.960938 24.992188 L 349.972656 24.992188 L 349.972656 0 L 299.988281 0 L 299.988281 24.992188 L 275 24.992188 L 275 49.980469 L 125.058594 49.980469 L 125.058594 74.972656 L 75.078125 74.972656 L 75.078125 99.960938 L 50.085938 99.960938 L 50.085938 124.953125 L 25.097656 124.953125 L 25.097656 174.933594 L 0.105469 174.933594 L 0.105469 274.894531 L 50.085938 274.894531 L 50.085938 324.875 L 75.078125 324.875 L 75.078125 374.855469 L 125.058594 374.855469 L 125.058594 399.84375 L 100.066406 399.84375 L 100.066406 424.835938 L 75.078125 424.835938 L 75.078125 549.789062 L 100.066406 549.789062 L 100.066406 599.769531 L 175.039062 599.769531 L 175.039062 574.777344 L 225.019531 574.777344 L 225.019531 599.769531 L 299.988281 599.769531 L 299.988281 574.777344 L 324.980469 574.777344 L 324.980469 549.789062 L 349.972656 549.789062 L 349.972656 424.835938 L 324.980469 424.835938 L 324.980469 374.855469 L 349.972656 374.855469 L 349.972656 349.863281 L 374.960938 349.863281 L 374.960938 299.882812 L 399.953125 299.882812 L 399.953125 274.894531 L 424.941406 274.894531 L 424.941406 199.921875 L 449.933594 199.921875 L 449.933594 99.960938 Z M 424.941406 99.960938 " fill-opacity="1" fill-rule="nonzero"/></g><path fill="#632050" d="M 175.039062 149.941406 L 150.046875 149.941406 L 150.046875 124.953125 L 175.039062 124.953125 Z M 100.066406 174.933594 L 75.078125 174.933594 L 75.078125 199.921875 L 100.066406 199.921875 Z M 50.085938 224.914062 L 75.078125 224.914062 L 75.078125 199.921875 L 50.085938 199.921875 Z M 25.097656 249.902344 L 50.085938 249.902344 L 50.085938 224.914062 L 25.097656 224.914062 Z M 349.972656 124.953125 L 324.980469 124.953125 L 324.980469 149.941406 L 349.972656 149.941406 Z M 299.988281 449.824219 L 275 449.824219 L 275 474.816406 L 250.007812 474.816406 L 250.007812 499.804688 L 324.980469 499.804688 L 324.980469 424.835938 L 299.988281 424.835938 Z M 374.960938 249.902344 L 349.972656 249.902344 L 349.972656 274.894531 L 324.980469 274.894531 L 324.980469 299.882812 L 299.988281 299.882812 L 299.988281 349.863281 L 324.980469 349.863281 L 324.980469 324.875 L 349.972656 324.875 L 349.972656 299.882812 L 374.960938 299.882812 L 374.960938 274.894531 L 399.953125 274.894531 L 399.953125 224.914062 L 374.960938 224.914062 Z M 225.019531 199.921875 L 225.019531 174.933594 L 200.027344 174.933594 L 200.027344 199.921875 Z M 399.953125 149.941406 L 374.960938 149.941406 L 374.960938 174.933594 L 424.941406 174.933594 L 424.941406 149.941406 Z M 275 524.796875 L 100.066406 524.796875 L 100.066406 549.789062 L 324.980469 549.789062 L 324.980469 524.796875 Z M 200.027344 174.933594 L 200.027344 149.941406 L 175.039062 149.941406 L 175.039062 174.933594 Z M 200.027344 174.933594 " fill-opacity="1" fill-rule="nonzero"/><path fill="#974856" d="M 150.046875 474.816406 L 175.039062 474.816406 L 175.039062 499.804688 L 100.066406 499.804688 L 100.066406 424.835938 L 125.058594 424.835938 L 125.058594 449.824219 L 150.046875 449.824219 Z M 275 424.835938 L 250.007812 424.835938 L 250.007812 449.824219 L 225.019531 449.824219 L 225.019531 474.816406 L 200.027344 474.816406 L 200.027344 499.804688 L 250.007812 499.804688 L 250.007812 474.816406 L 275 474.816406 L 275 449.824219 L 299.988281 449.824219 L 299.988281 399.84375 L 275 399.84375 Z M 324.980469 199.921875 L 324.980469 224.914062 L 299.988281 224.914062 L 299.988281 299.882812 L 324.980469 299.882812 L 324.980469 274.894531 L 349.972656 274.894531 L 349.972656 249.902344 L 374.960938 249.902344 L 374.960938 174.933594 L 349.972656 174.933594 L 349.972656 199.921875 Z M 250.007812 199.921875 L 225.019531 199.921875 L 225.019531 224.914062 L 250.007812 224.914062 Z M 324.980469 174.933594 L 349.972656 174.933594 L 349.972656 149.941406 L 324.980469 149.941406 Z M 349.972656 149.941406 L 374.960938 149.941406 L 374.960938 124.953125 L 349.972656 124.953125 Z M 399.953125 99.960938 L 399.953125 149.941406 L 424.941406 149.941406 L 424.941406 99.960938 Z M 324.980469 124.953125 L 324.980469 99.960938 L 299.988281 99.960938 L 299.988281 124.953125 Z M 299.988281 74.972656 L 275 74.972656 L 275 99.960938 L 299.988281 99.960938 Z M 299.988281 74.972656 " fill-opacity="1" fill-rule="nonzero"/><path fill="#fc8b5b" d="M 250.007812 249.902344 L 275 249.902344 L 275 349.863281 L 250.007812 349.863281 Z M 299.988281 99.960938 L 275 99.960938 L 275 74.972656 L 150.046875 74.972656 L 150.046875 99.960938 L 100.066406 99.960938 L 100.066406 124.953125 L 75.078125 124.953125 L 75.078125 149.941406 L 50.085938 149.941406 L 50.085938 174.933594 L 25.097656 174.933594 L 25.097656 224.914062 L 50.085938 224.914062 L 50.085938 199.921875 L 75.078125 199.921875 L 75.078125 174.933594 L 125.058594 174.933594 L 125.058594 149.941406 L 150.046875 149.941406 L 150.046875 124.953125 L 175.039062 124.953125 L 175.039062 149.941406 L 200.027344 149.941406 L 200.027344 174.933594 L 250.007812 174.933594 L 250.007812 199.921875 L 275 199.921875 L 275 224.914062 L 324.980469 224.914062 L 324.980469 199.921875 L 349.972656 199.921875 L 349.972656 174.933594 L 324.980469 174.933594 L 324.980469 124.953125 L 299.988281 124.953125 Z M 374.960938 74.972656 L 374.960938 49.980469 L 349.972656 49.980469 L 349.972656 24.992188 L 324.980469 24.992188 L 324.980469 49.980469 L 299.988281 49.980469 L 299.988281 99.960938 L 324.980469 99.960938 L 324.980469 124.953125 L 349.972656 124.953125 L 349.972656 99.960938 L 374.960938 99.960938 L 374.960938 124.953125 L 399.953125 124.953125 L 399.953125 74.972656 Z M 374.960938 74.972656 " fill-opacity="1" fill-rule="nonzero"/><path fill="#ffdbb8" d="M 225.019531 399.84375 L 250.007812 399.84375 L 250.007812 424.835938 L 225.019531 424.835938 L 225.019531 449.824219 L 200.027344 449.824219 L 200.027344 474.816406 L 175.039062 474.816406 L 175.039062 449.824219 L 150.046875 449.824219 L 150.046875 424.835938 L 125.058594 424.835938 L 125.058594 399.84375 Z M 225.019531 249.902344 L 250.007812 249.902344 L 250.007812 349.863281 L 225.019531 349.863281 L 225.019531 374.855469 L 125.058594 374.855469 L 125.058594 349.863281 L 100.066406 349.863281 L 100.066406 324.875 L 75.078125 324.875 L 75.078125 224.914062 L 100.066406 224.914062 L 100.066406 199.921875 L 125.058594 199.921875 L 125.058594 174.933594 L 175.039062 174.933594 L 175.039062 199.921875 L 200.027344 199.921875 L 200.027344 224.914062 L 225.019531 224.914062 L 225.019531 249.902344 L 200.027344 249.902344 L 200.027344 299.882812 L 225.019531 299.882812 Z M 100.066406 299.882812 L 125.058594 299.882812 L 125.058594 249.902344 L 100.066406 249.902344 Z M 275 249.902344 L 299.988281 249.902344 L 299.988281 224.914062 L 275 224.914062 Z M 250.007812 199.921875 L 250.007812 224.914062 L 275 224.914062 L 275 199.921875 Z M 225.019531 174.933594 L 225.019531 199.921875 L 250.007812 199.921875 L 250.007812 174.933594 Z M 374.960938 124.953125 L 374.960938 149.941406 L 399.953125 149.941406 L 399.953125 124.953125 Z M 75.078125 124.953125 L 50.085938 124.953125 L 50.085938 149.941406 L 75.078125 149.941406 Z M 349.972656 99.960938 L 349.972656 124.953125 L 374.960938 124.953125 L 374.960938 99.960938 Z M 100.066406 99.960938 L 75.078125 99.960938 L 75.078125 124.953125 L 100.066406 124.953125 Z M 150.046875 74.972656 L 125.058594 74.972656 L 125.058594 99.960938 L 150.046875 99.960938 Z M 275 74.972656 L 299.988281 74.972656 L 299.988281 49.980469 L 275 49.980469 Z M 299.988281 49.980469 L 324.980469 49.980469 L 324.980469 24.992188 L 299.988281 24.992188 Z M 299.988281 49.980469 " fill-opacity="1" fill-rule="nonzero"/><g clip-path="url(#a77a57ff3e)"><path fill="#13001e" d="M 1168.933594 124.953125 L 1168.933594 99.960938 L 1143.941406 99.960938 L 1143.941406 49.980469 L 1118.953125 49.980469 L 1118.953125 24.992188 L 1018.988281 24.992188 L 1018.988281 0 L 819.066406 0 L 819.066406 24.992188 L 794.078125 24.992188 L 794.078125 49.980469 L 769.085938 49.980469 L 769.085938 74.972656 L 744.097656 74.972656 L 744.097656 99.960938 L 719.105469 99.960938 L 719.105469 124.953125 L 694.117188 124.953125 L 694.117188 149.941406 L 669.125 149.941406 L 669.125 249.902344 L 719.105469 249.902344 L 719.105469 274.894531 L 744.097656 274.894531 L 744.097656 324.875 L 769.085938 324.875 L 769.085938 374.855469 L 819.066406 374.855469 L 819.066406 399.84375 L 794.078125 399.84375 L 794.078125 424.835938 L 769.085938 424.835938 L 769.085938 524.796875 L 844.058594 524.796875 L 844.058594 599.769531 L 1018.988281 599.769531 L 1018.988281 549.789062 L 1043.980469 549.789062 L 1043.980469 524.796875 L 1093.960938 524.796875 L 1093.960938 499.804688 L 1118.953125 499.804688 L 1118.953125 424.835938 L 1093.960938 424.835938 L 1093.960938 399.84375 L 1068.96875 399.84375 L 1068.96875 374.855469 L 1093.960938 374.855469 L 1093.960938 349.863281 L 1143.941406 349.863281 L 1143.941406 324.875 L 1168.933594 324.875 L 1168.933594 274.894531 L 1193.921875 274.894531 L 1193.921875 124.953125 Z M 1168.933594 124.953125 " fill-opacity="1" fill-rule="nonzero"/></g><path fill="#a52808" d="M 1018.988281 349.863281 L 1043.980469 349.863281 L 1043.980469 374.855469 L 1018.988281 374.855469 Z M 1068.96875 274.894531 L 1018.988281 274.894531 L 1018.988281 299.882812 L 1043.980469 299.882812 L 1043.980469 349.863281 L 1068.96875 349.863281 L 1068.96875 324.875 L 1093.960938 324.875 L 1093.960938 274.894531 Z M 1018.988281 224.914062 L 944.019531 224.914062 L 944.019531 199.921875 L 869.046875 199.921875 L 869.046875 224.914062 L 919.027344 224.914062 L 919.027344 249.902344 L 994 249.902344 L 994 274.894531 L 1018.988281 274.894531 Z M 1018.988281 224.914062 " fill-opacity="1" fill-rule="nonzero"/><path fill="#6b0852" d="M 969.007812 524.796875 L 994 524.796875 L 994 574.777344 L 944.019531 574.777344 L 944.019531 524.796875 Z M 869.046875 524.796875 L 869.046875 574.777344 L 919.027344 574.777344 L 919.027344 524.796875 Z M 1068.96875 424.835938 L 1043.980469 424.835938 L 1043.980469 499.804688 L 1068.96875 499.804688 L 1068.96875 474.816406 L 1093.960938 474.816406 L 1093.960938 449.824219 L 1068.96875 449.824219 Z M 944.019531 424.835938 L 894.039062 424.835938 L 894.039062 449.824219 L 869.046875 449.824219 L 869.046875 474.816406 L 844.058594 474.816406 L 844.058594 499.804688 L 944.019531 499.804688 L 944.019531 474.816406 L 969.007812 474.816406 L 969.007812 449.824219 L 994 449.824219 L 994 424.835938 Z M 794.078125 449.824219 L 794.078125 474.816406 L 819.066406 474.816406 L 819.066406 424.835938 L 794.078125 424.835938 Z M 969.007812 149.941406 L 919.027344 149.941406 L 919.027344 174.933594 L 969.007812 174.933594 L 969.007812 199.921875 L 1018.988281 199.921875 L 1018.988281 149.941406 Z M 1143.941406 124.953125 L 1143.941406 99.960938 L 1118.953125 99.960938 L 1118.953125 74.972656 L 1093.960938 74.972656 L 1093.960938 149.941406 L 1068.96875 149.941406 L 1068.96875 174.933594 L 1043.980469 174.933594 L 1043.980469 199.921875 L 1068.96875 199.921875 L 1068.96875 249.902344 L 1093.960938 249.902344 L 1093.960938 224.914062 L 1118.953125 224.914062 L 1118.953125 249.902344 L 1168.933594 249.902344 L 1168.933594 124.953125 Z M 894.039062 124.953125 L 869.046875 124.953125 L 869.046875 149.941406 L 844.058594 149.941406 L 844.058594 124.953125 L 819.066406 124.953125 L 819.066406 149.941406 L 794.078125 149.941406 L 794.078125 174.933594 L 744.097656 174.933594 L 744.097656 199.921875 L 719.105469 199.921875 L 719.105469 174.933594 L 694.117188 174.933594 L 694.117188 224.914062 L 769.085938 224.914062 L 769.085938 199.921875 L 844.058594 199.921875 L 844.058594 174.933594 L 894.039062 174.933594 L 894.039062 149.941406 L 919.027344 149.941406 L 919.027344 124.953125 Z M 944.019531 99.960938 L 919.027344 99.960938 L 919.027344 124.953125 L 944.019531 124.953125 Z M 869.046875 99.960938 L 844.058594 99.960938 L 844.058594 124.953125 L 869.046875 124.953125 Z M 894.039062 74.972656 L 869.046875 74.972656 L 869.046875 99.960938 L 894.039062 99.960938 Z M 1068.96875 49.980469 L 1018.988281 49.980469 L 1018.988281 74.972656 L 1093.960938 74.972656 L 1093.960938 49.980469 Z M 994 24.992188 L 969.007812 24.992188 L 969.007812 49.980469 L 1018.988281 49.980469 L 1018.988281 24.992188 Z M 994 24.992188 " fill-opacity="1" fill-rule="nonzero"/><path fill="#dd6199" d="M 869.046875 424.835938 L 894.039062 424.835938 L 894.039062 449.824219 L 869.046875 449.824219 L 869.046875 474.816406 L 844.058594 474.816406 L 844.058594 424.835938 Z M 844.058594 149.941406 L 869.046875 149.941406 L 869.046875 124.953125 L 844.058594 124.953125 Z M 1068.96875 74.972656 L 1018.988281 74.972656 L 1018.988281 49.980469 L 994 49.980469 L 994 99.960938 L 969.007812 99.960938 L 969.007812 124.953125 L 944.019531 124.953125 L 944.019531 149.941406 L 1043.980469 149.941406 L 1043.980469 124.953125 L 1093.960938 124.953125 L 1093.960938 74.972656 Z M 944.019531 74.972656 L 969.007812 74.972656 L 969.007812 24.992188 L 844.058594 24.992188 L 844.058594 49.980469 L 819.066406 49.980469 L 819.066406 74.972656 L 794.078125 74.972656 L 794.078125 99.960938 L 769.085938 99.960938 L 769.085938 124.953125 L 744.097656 124.953125 L 744.097656 149.941406 L 719.105469 149.941406 L 719.105469 199.921875 L 744.097656 199.921875 L 744.097656 174.933594 L 794.078125 174.933594 L 794.078125 149.941406 L 819.066406 149.941406 L 819.066406 124.953125 L 844.058594 124.953125 L 844.058594 99.960938 L 869.046875 99.960938 L 869.046875 74.972656 L 894.039062 74.972656 L 894.039062 99.960938 L 869.046875 99.960938 L 869.046875 124.953125 L 919.027344 124.953125 L 919.027344 99.960938 L 944.019531 99.960938 Z M 944.019531 74.972656 " fill-opacity="1" fill-rule="nonzero"/><path fill="#fee0bb" d="M 1018.988281 474.816406 L 1043.980469 474.816406 L 1043.980469 499.804688 L 1018.988281 499.804688 Z M 794.078125 499.804688 L 819.066406 499.804688 L 819.066406 474.816406 L 794.078125 474.816406 Z M 1018.988281 299.882812 L 1043.980469 299.882812 L 1043.980469 349.863281 L 1018.988281 349.863281 L 1018.988281 374.855469 L 994 374.855469 L 994 399.84375 L 844.058594 399.84375 L 844.058594 374.855469 L 819.066406 374.855469 L 819.066406 349.863281 L 794.078125 349.863281 L 794.078125 224.914062 L 919.027344 224.914062 L 919.027344 249.902344 L 944.019531 249.902344 L 944.019531 274.894531 L 969.007812 274.894531 L 969.007812 299.882812 L 994 299.882812 L 994 274.894531 L 1018.988281 274.894531 Z M 819.066406 274.894531 L 844.058594 274.894531 L 844.058594 299.882812 L 869.046875 299.882812 L 869.046875 249.902344 L 819.066406 249.902344 Z M 1018.988281 174.933594 L 1043.980469 174.933594 L 1043.980469 149.941406 L 1018.988281 149.941406 Z M 694.117188 174.933594 L 719.105469 174.933594 L 719.105469 149.941406 L 694.117188 149.941406 Z M 1043.980469 124.953125 L 1043.980469 149.941406 L 1068.96875 149.941406 L 1068.96875 124.953125 Z M 719.105469 149.941406 L 744.097656 149.941406 L 744.097656 124.953125 L 719.105469 124.953125 Z M 969.007812 74.972656 L 944.019531 74.972656 L 944.019531 99.960938 L 969.007812 99.960938 Z M 794.078125 74.972656 L 769.085938 74.972656 L 769.085938 99.960938 L 794.078125 99.960938 Z M 994 49.980469 L 969.007812 49.980469 L 969.007812 74.972656 L 994 74.972656 Z M 819.066406 49.980469 L 794.078125 49.980469 L 794.078125 74.972656 L 819.066406 74.972656 Z M 844.058594 24.992188 L 819.066406 24.992188 L 819.066406 49.980469 L 844.058594 49.980469 Z M 844.058594 24.992188 " fill-opacity="1" fill-rule="nonzero"/><g clip-path="url(#ee5c7be656)"><path fill="#030309" d="M 138.054688 1122.640625 L 114.0625 1122.640625 L 114.0625 1146.628906 L 90.070312 1146.628906 L 90.070312 1194.609375 L 138.054688 1194.609375 L 138.054688 1218.601562 L 162.042969 1218.601562 L 162.042969 1290.574219 L 234.015625 1290.574219 L 234.015625 1266.582031 L 281.996094 1266.582031 L 281.996094 1290.574219 L 353.96875 1290.574219 L 353.96875 1266.582031 L 377.960938 1266.582031 L 377.960938 1218.601562 L 401.949219 1218.601562 L 401.949219 1194.609375 L 425.941406 1194.609375 L 425.941406 1098.648438 L 401.949219 1098.648438 L 401.949219 1074.65625 L 425.941406 1074.65625 L 425.941406 1050.667969 L 449.933594 1050.667969 L 449.933594 810.757812 L 425.941406 810.757812 L 425.941406 786.769531 L 377.960938 786.769531 L 377.960938 762.777344 L 353.96875 762.777344 L 353.96875 738.789062 L 329.980469 738.789062 L 329.980469 714.796875 L 305.988281 714.796875 L 305.988281 690.804688 L 114.0625 690.804688 L 114.0625 714.796875 L 66.082031 714.796875 L 66.082031 738.789062 L 42.089844 738.789062 L 42.089844 762.777344 L 18.097656 762.777344 L 18.097656 978.695312 L 90.070312 978.695312 L 90.070312 1050.667969 L 114.0625 1050.667969 L 114.0625 1074.65625 L 138.054688 1074.65625 Z M 138.054688 1122.640625 " fill-opacity="1" fill-rule="nonzero"/></g><path fill="#541504" d="M 305.988281 1218.601562 L 329.980469 1218.601562 L 329.980469 1266.582031 L 305.988281 1266.582031 L 305.988281 1242.59375 L 234.015625 1242.59375 L 234.015625 1218.601562 L 258.007812 1218.601562 L 258.007812 1194.609375 L 281.996094 1194.609375 L 281.996094 1218.601562 Z M 377.960938 1170.621094 L 353.96875 1170.621094 L 353.96875 1194.609375 L 401.949219 1194.609375 L 401.949219 1146.628906 L 377.960938 1146.628906 Z M 353.96875 978.695312 L 353.96875 954.703125 L 329.980469 954.703125 L 329.980469 978.695312 Z M 305.988281 930.714844 L 305.988281 954.703125 L 329.980469 954.703125 L 329.980469 930.714844 Z M 42.089844 930.714844 L 42.089844 954.703125 L 90.070312 954.703125 L 90.070312 930.714844 Z M 281.996094 906.722656 L 281.996094 930.714844 L 305.988281 930.714844 L 305.988281 906.722656 Z M 186.035156 930.714844 L 210.023438 930.714844 L 210.023438 906.722656 L 186.035156 906.722656 Z M 138.054688 930.714844 L 162.042969 930.714844 L 162.042969 906.722656 L 138.054688 906.722656 Z M 401.949219 906.722656 L 401.949219 1026.675781 L 377.960938 1026.675781 L 377.960938 1050.667969 L 425.941406 1050.667969 L 425.941406 882.730469 L 401.949219 882.730469 Z M 258.007812 882.730469 L 258.007812 906.722656 L 281.996094 906.722656 L 281.996094 882.730469 Z M 162.042969 882.730469 L 162.042969 906.722656 L 186.035156 906.722656 L 186.035156 882.730469 Z M 258.007812 858.742188 L 281.996094 858.742188 L 281.996094 834.75 L 258.007812 834.75 Z M 162.042969 858.742188 L 186.035156 858.742188 L 186.035156 834.75 L 162.042969 834.75 Z M 401.949219 810.757812 L 401.949219 834.75 L 425.941406 834.75 L 425.941406 810.757812 Z M 305.988281 810.757812 L 281.996094 810.757812 L 281.996094 834.75 L 305.988281 834.75 Z M 186.035156 834.75 L 210.023438 834.75 L 210.023438 810.757812 L 186.035156 810.757812 Z M 234.015625 786.769531 L 210.023438 786.769531 L 210.023438 810.757812 L 234.015625 810.757812 Z M 258.007812 762.777344 L 234.015625 762.777344 L 234.015625 786.769531 L 258.007812 786.769531 Z M 258.007812 762.777344 " fill-opacity="1" fill-rule="nonzero"/><path fill="#a52808" d="M 234.015625 1194.609375 L 258.007812 1194.609375 L 258.007812 1218.601562 L 234.015625 1218.601562 L 234.015625 1242.59375 L 210.023438 1242.59375 L 210.023438 1266.582031 L 186.035156 1266.582031 L 186.035156 1194.609375 Z M 329.980469 1194.609375 L 353.96875 1194.609375 L 353.96875 1170.621094 L 329.980469 1170.621094 Z M 258.007812 1170.621094 L 281.996094 1170.621094 L 281.996094 1146.628906 L 258.007812 1146.628906 Z M 281.996094 1146.628906 L 305.988281 1146.628906 L 305.988281 1122.640625 L 281.996094 1122.640625 Z M 138.054688 1146.628906 L 138.054688 1170.621094 L 162.042969 1170.621094 L 162.042969 1122.640625 L 138.054688 1122.640625 Z M 377.960938 1122.640625 L 377.960938 1146.628906 L 401.949219 1146.628906 L 401.949219 1098.648438 L 377.960938 1098.648438 Z M 305.988281 1074.65625 L 186.035156 1074.65625 L 186.035156 1098.648438 L 305.988281 1098.648438 L 305.988281 1122.640625 L 353.96875 1122.640625 L 353.96875 1074.65625 Z M 329.980469 1002.683594 L 353.96875 1002.683594 L 353.96875 978.695312 L 329.980469 978.695312 Z M 305.988281 954.703125 L 305.988281 978.695312 L 329.980469 978.695312 L 329.980469 954.703125 Z M 281.996094 930.714844 L 281.996094 954.703125 L 305.988281 954.703125 L 305.988281 930.714844 Z M 258.007812 906.722656 L 234.015625 906.722656 L 234.015625 930.714844 L 281.996094 930.714844 L 281.996094 906.722656 Z M 186.035156 906.722656 L 162.042969 906.722656 L 162.042969 930.714844 L 186.035156 930.714844 Z M 66.082031 906.722656 L 42.089844 906.722656 L 42.089844 930.714844 L 114.0625 930.714844 L 114.0625 906.722656 Z M 377.960938 906.722656 L 377.960938 930.714844 L 353.96875 930.714844 L 353.96875 954.703125 L 377.960938 954.703125 L 377.960938 1026.675781 L 401.949219 1026.675781 L 401.949219 882.730469 L 377.960938 882.730469 Z M 353.96875 858.742188 L 353.96875 882.730469 L 377.960938 882.730469 L 377.960938 858.742188 Z M 90.070312 882.730469 L 114.0625 882.730469 L 114.0625 858.742188 L 90.070312 858.742188 Z M 42.089844 882.730469 L 66.082031 882.730469 L 66.082031 858.742188 L 42.089844 858.742188 Z M 401.949219 834.75 L 401.949219 882.730469 L 425.941406 882.730469 L 425.941406 834.75 Z M 329.980469 834.75 L 329.980469 858.742188 L 353.96875 858.742188 L 353.96875 834.75 Z M 186.035156 858.742188 L 186.035156 882.730469 L 210.023438 882.730469 L 210.023438 834.75 L 186.035156 834.75 Z M 66.082031 834.75 L 66.082031 858.742188 L 90.070312 858.742188 L 90.070312 834.75 Z M 377.960938 810.757812 L 377.960938 834.75 L 401.949219 834.75 L 401.949219 810.757812 Z M 234.015625 810.757812 L 210.023438 810.757812 L 210.023438 834.75 L 234.015625 834.75 Z M 353.96875 786.769531 L 353.96875 810.757812 L 377.960938 810.757812 L 377.960938 786.769531 Z M 305.988281 810.757812 L 329.980469 810.757812 L 329.980469 786.769531 L 305.988281 786.769531 Z M 258.007812 786.769531 L 234.015625 786.769531 L 234.015625 810.757812 L 258.007812 810.757812 Z M 329.980469 762.777344 L 329.980469 786.769531 L 353.96875 786.769531 L 353.96875 762.777344 Z M 162.042969 786.769531 L 162.042969 762.777344 L 138.054688 762.777344 L 138.054688 786.769531 Z M 305.988281 738.789062 L 305.988281 762.777344 L 329.980469 762.777344 L 329.980469 738.789062 Z M 186.035156 738.789062 L 162.042969 738.789062 L 162.042969 762.777344 L 186.035156 762.777344 Z M 138.054688 738.789062 L 114.0625 738.789062 L 114.0625 762.777344 L 138.054688 762.777344 Z M 281.996094 714.796875 L 281.996094 738.789062 L 305.988281 738.789062 L 305.988281 714.796875 Z M 281.996094 714.796875 " fill-opacity="1" fill-rule="nonzero"/><path fill="#fc8b5b" d="M 353.96875 1122.640625 L 377.960938 1122.640625 L 377.960938 1170.621094 L 329.980469 1170.621094 L 329.980469 1146.628906 L 353.96875 1146.628906 Z M 258.007812 1098.648438 L 186.035156 1098.648438 L 186.035156 1170.621094 L 258.007812 1170.621094 L 258.007812 1146.628906 L 281.996094 1146.628906 L 281.996094 1122.640625 L 305.988281 1122.640625 L 305.988281 1098.648438 Z M 353.96875 1026.675781 L 353.96875 1002.683594 L 329.980469 1002.683594 L 329.980469 1026.675781 Z M 329.980469 1002.683594 L 329.980469 978.695312 L 305.988281 978.695312 L 305.988281 1002.683594 Z M 281.996094 954.703125 L 281.996094 978.695312 L 305.988281 978.695312 L 305.988281 954.703125 Z M 234.015625 930.714844 L 210.023438 930.714844 L 210.023438 954.703125 L 234.015625 954.703125 Z M 353.96875 858.742188 L 305.988281 858.742188 L 305.988281 834.75 L 281.996094 834.75 L 281.996094 882.730469 L 305.988281 882.730469 L 305.988281 906.722656 L 329.980469 906.722656 L 329.980469 930.714844 L 377.960938 930.714844 L 377.960938 882.730469 L 353.96875 882.730469 Z M 377.960938 834.75 L 377.960938 810.757812 L 353.96875 810.757812 L 353.96875 858.742188 L 377.960938 858.742188 L 377.960938 882.730469 L 401.949219 882.730469 L 401.949219 834.75 Z M 329.980469 810.757812 L 305.988281 810.757812 L 305.988281 834.75 L 329.980469 834.75 Z M 353.96875 810.757812 L 353.96875 786.769531 L 329.980469 786.769531 L 329.980469 810.757812 Z M 305.988281 810.757812 L 305.988281 786.769531 L 329.980469 786.769531 L 329.980469 762.777344 L 305.988281 762.777344 L 305.988281 738.789062 L 281.996094 738.789062 L 281.996094 714.796875 L 138.054688 714.796875 L 138.054688 762.777344 L 162.042969 762.777344 L 162.042969 738.789062 L 186.035156 738.789062 L 186.035156 762.777344 L 162.042969 762.777344 L 162.042969 786.769531 L 138.054688 786.769531 L 138.054688 762.777344 L 114.0625 762.777344 L 114.0625 738.789062 L 90.070312 738.789062 L 90.070312 762.777344 L 66.082031 762.777344 L 66.082031 786.769531 L 42.089844 786.769531 L 42.089844 858.742188 L 66.082031 858.742188 L 66.082031 834.75 L 90.070312 834.75 L 90.070312 858.742188 L 114.0625 858.742188 L 114.0625 882.730469 L 90.070312 882.730469 L 90.070312 858.742188 L 66.082031 858.742188 L 66.082031 882.730469 L 42.089844 882.730469 L 42.089844 906.722656 L 138.054688 906.722656 L 138.054688 882.730469 L 162.042969 882.730469 L 162.042969 834.75 L 186.035156 834.75 L 186.035156 786.769531 L 210.023438 786.769531 L 210.023438 762.777344 L 234.015625 762.777344 L 234.015625 738.789062 L 258.007812 738.789062 L 258.007812 810.757812 L 234.015625 810.757812 L 234.015625 834.75 L 210.023438 834.75 L 210.023438 906.722656 L 234.015625 906.722656 L 234.015625 882.730469 L 258.007812 882.730469 L 258.007812 834.75 L 281.996094 834.75 L 281.996094 810.757812 Z M 305.988281 810.757812 " fill-opacity="1" fill-rule="nonzero"/><path fill="#ffdbb8" d="M 305.988281 1146.628906 L 329.980469 1146.628906 L 329.980469 1194.609375 L 281.996094 1194.609375 L 281.996094 1170.621094 L 305.988281 1170.621094 Z M 114.0625 1170.621094 L 138.054688 1170.621094 L 138.054688 1146.628906 L 114.0625 1146.628906 Z M 305.988281 978.695312 L 281.996094 978.695312 L 281.996094 1002.683594 L 258.007812 1002.683594 L 258.007812 954.703125 L 210.023438 954.703125 L 210.023438 930.714844 L 162.042969 930.714844 L 162.042969 1002.683594 L 138.054688 1002.683594 L 138.054688 954.703125 L 114.0625 954.703125 L 114.0625 1050.667969 L 138.054688 1050.667969 L 138.054688 1074.65625 L 258.007812 1074.65625 L 258.007812 1050.667969 L 329.980469 1050.667969 L 329.980469 1002.683594 L 305.988281 1002.683594 Z M 305.988281 858.742188 L 329.980469 858.742188 L 329.980469 834.75 L 305.988281 834.75 Z M 329.980469 810.757812 L 329.980469 834.75 L 353.96875 834.75 L 353.96875 810.757812 Z M 210.023438 786.769531 L 186.035156 786.769531 L 186.035156 810.757812 L 210.023438 810.757812 Z M 234.015625 762.777344 L 210.023438 762.777344 L 210.023438 786.769531 L 234.015625 786.769531 Z M 42.089844 786.769531 L 66.082031 786.769531 L 66.082031 762.777344 L 42.089844 762.777344 Z M 258.007812 738.789062 L 234.015625 738.789062 L 234.015625 762.777344 L 258.007812 762.777344 Z M 66.082031 762.777344 L 90.070312 762.777344 L 90.070312 738.789062 L 66.082031 738.789062 Z M 138.054688 714.796875 L 114.0625 714.796875 L 114.0625 738.789062 L 138.054688 738.789062 Z M 138.054688 714.796875 " fill-opacity="1" fill-rule="nonzero"/><g clip-path="url(#80ccbb7f8a)"><path fill="#030309" d="M 1166.59375 854.378906 L 1166.59375 799.855469 L 1139.332031 799.855469 L 1139.332031 745.332031 L 1084.808594 745.332031 L 1084.808594 718.066406 L 1057.546875 718.066406 L 1057.546875 690.804688 L 839.449219 690.804688 L 839.449219 718.066406 L 784.921875 718.066406 L 784.921875 745.332031 L 757.660156 745.332031 L 757.660156 936.164062 L 784.921875 936.164062 L 784.921875 990.691406 L 812.183594 990.691406 L 812.183594 1017.953125 L 839.449219 1017.953125 L 839.449219 1045.214844 L 812.183594 1045.214844 L 812.183594 1072.476562 L 784.921875 1072.476562 L 784.921875 1181.523438 L 812.183594 1181.523438 L 812.183594 1208.789062 L 839.449219 1208.789062 L 839.449219 1290.574219 L 948.496094 1290.574219 L 948.496094 1263.3125 L 975.757812 1263.3125 L 975.757812 1290.574219 L 1057.546875 1290.574219 L 1057.546875 1208.789062 L 1084.808594 1208.789062 L 1084.808594 1045.214844 L 1112.070312 1045.214844 L 1112.070312 1072.476562 L 1139.332031 1072.476562 L 1139.332031 1099.738281 L 1166.59375 1099.738281 L 1166.59375 1072.476562 L 1193.855469 1072.476562 L 1193.855469 881.640625 L 1166.59375 881.640625 Z M 1166.59375 854.378906 " fill-opacity="1" fill-rule="nonzero"/></g><path fill="#a52808" d="M 975.757812 1208.789062 L 975.757812 1181.523438 L 1003.019531 1181.523438 L 1003.019531 1208.789062 L 1030.28125 1208.789062 L 1030.28125 1263.3125 L 975.757812 1263.3125 Z M 948.496094 1154.261719 L 921.234375 1154.261719 L 921.234375 1208.789062 L 893.972656 1208.789062 L 893.972656 1263.3125 L 921.234375 1263.3125 L 921.234375 1236.050781 L 948.496094 1236.050781 L 948.496094 1181.523438 L 975.757812 1181.523438 L 975.757812 1127 L 948.496094 1127 Z M 1030.28125 1045.214844 L 1030.28125 1072.476562 L 1003.019531 1072.476562 L 1003.019531 1099.738281 L 975.757812 1099.738281 L 975.757812 1127 L 1030.28125 1127 L 1030.28125 1181.523438 L 1057.546875 1181.523438 L 1057.546875 1045.214844 Z M 1030.28125 1045.214844 " fill-opacity="1" fill-rule="nonzero"/><path fill="#fc8b5b" d="M 1003.019531 1127 L 1030.28125 1127 L 1030.28125 1154.261719 L 1003.019531 1154.261719 Z M 812.183594 1127 L 812.183594 1181.523438 L 839.449219 1181.523438 L 839.449219 1099.738281 L 812.183594 1099.738281 Z M 975.757812 1045.214844 L 975.757812 1072.476562 L 948.496094 1072.476562 L 948.496094 1099.738281 L 921.234375 1099.738281 L 921.234375 1072.476562 L 893.972656 1072.476562 L 893.972656 1045.214844 L 866.710938 1045.214844 L 866.710938 1072.476562 L 839.449219 1072.476562 L 839.449219 1099.738281 L 866.710938 1099.738281 L 866.710938 1263.3125 L 893.972656 1263.3125 L 893.972656 1208.789062 L 921.234375 1208.789062 L 921.234375 1154.261719 L 948.496094 1154.261719 L 948.496094 1127 L 975.757812 1127 L 975.757812 1099.738281 L 1003.019531 1099.738281 L 1003.019531 1072.476562 L 1030.28125 1072.476562 L 1030.28125 1045.214844 Z M 1057.546875 936.164062 L 1057.546875 908.902344 L 1030.28125 908.902344 L 1030.28125 963.429688 L 1003.019531 963.429688 L 1003.019531 1017.953125 L 1030.28125 1017.953125 L 1030.28125 990.691406 L 1057.546875 990.691406 L 1057.546875 963.429688 L 1084.808594 963.429688 L 1084.808594 936.164062 Z M 1003.019531 881.640625 L 1003.019531 908.902344 L 1030.28125 908.902344 L 1030.28125 881.640625 Z M 975.757812 854.378906 L 975.757812 881.640625 L 1003.019531 881.640625 L 1003.019531 854.378906 Z M 893.972656 827.117188 L 866.710938 827.117188 L 866.710938 854.378906 L 893.972656 854.378906 Z M 893.972656 827.117188 " fill-opacity="1" fill-rule="nonzero"/><path fill="#936a89" d="M 1166.59375 908.902344 L 1166.59375 1045.214844 L 1139.332031 1045.214844 L 1139.332031 1017.953125 L 1112.070312 1017.953125 L 1112.070312 990.691406 L 1084.808594 990.691406 L 1084.808594 963.429688 L 1112.070312 963.429688 L 1112.070312 936.164062 L 1139.332031 936.164062 L 1139.332031 908.902344 Z M 1084.808594 908.902344 L 1112.070312 908.902344 L 1112.070312 854.378906 L 1084.808594 854.378906 L 1084.808594 827.117188 L 1057.546875 827.117188 L 1057.546875 799.855469 L 1003.019531 799.855469 L 1003.019531 854.378906 L 1030.28125 854.378906 L 1030.28125 881.640625 L 1057.546875 881.640625 L 1057.546875 908.902344 Z M 1112.070312 854.378906 L 1139.332031 854.378906 L 1139.332031 799.855469 L 1112.070312 799.855469 L 1112.070312 772.59375 L 1084.808594 772.59375 L 1084.808594 827.117188 L 1112.070312 827.117188 Z M 893.972656 799.855469 L 893.972656 827.117188 L 921.234375 827.117188 L 921.234375 799.855469 Z M 866.710938 772.59375 L 866.710938 745.332031 L 839.449219 745.332031 L 839.449219 772.59375 L 812.183594 772.59375 L 812.183594 799.855469 L 784.921875 799.855469 L 784.921875 881.640625 L 812.183594 881.640625 L 812.183594 854.378906 L 839.449219 854.378906 L 839.449219 827.117188 L 866.710938 827.117188 L 866.710938 799.855469 L 893.972656 799.855469 L 893.972656 772.59375 Z M 1030.28125 772.59375 L 1030.28125 745.332031 L 1057.546875 745.332031 L 1057.546875 718.066406 L 866.710938 718.066406 L 866.710938 745.332031 L 893.972656 745.332031 L 893.972656 772.59375 L 921.234375 772.59375 L 921.234375 799.855469 L 948.496094 799.855469 L 948.496094 827.117188 L 921.234375 827.117188 L 921.234375 854.378906 L 975.757812 854.378906 L 975.757812 799.855469 L 1003.019531 799.855469 L 1003.019531 772.59375 Z M 1030.28125 772.59375 " fill-opacity="1" fill-rule="nonzero"/><path fill="#f9e3ce" d="M 1030.28125 908.902344 L 1030.28125 963.429688 L 1003.019531 963.429688 L 1003.019531 1017.953125 L 839.449219 1017.953125 L 839.449219 990.691406 L 812.183594 990.691406 L 812.183594 936.164062 L 784.921875 936.164062 L 784.921875 908.902344 L 812.183594 908.902344 L 812.183594 881.640625 L 839.449219 881.640625 L 839.449219 908.902344 L 866.710938 908.902344 L 866.710938 854.378906 L 921.234375 854.378906 L 921.234375 881.640625 L 948.496094 881.640625 L 948.496094 908.902344 L 975.757812 908.902344 L 975.757812 881.640625 L 1003.019531 881.640625 L 1003.019531 908.902344 Z M 812.183594 1099.738281 L 839.449219 1099.738281 L 839.449219 1072.476562 L 812.183594 1072.476562 Z M 839.449219 1072.476562 L 866.710938 1072.476562 L 866.710938 1045.214844 L 839.449219 1045.214844 Z M 1139.332031 854.378906 L 1139.332031 881.640625 L 1112.070312 881.640625 L 1112.070312 854.378906 Z M 1084.808594 827.117188 L 1084.808594 854.378906 L 1112.070312 854.378906 L 1112.070312 827.117188 Z M 975.757812 827.117188 L 1003.019531 827.117188 L 1003.019531 799.855469 L 975.757812 799.855469 Z M 921.234375 827.117188 L 948.496094 827.117188 L 948.496094 799.855469 L 921.234375 799.855469 Z M 1003.019531 799.855469 L 1030.28125 799.855469 L 1030.28125 772.59375 L 1003.019531 772.59375 Z M 893.972656 772.59375 L 893.972656 799.855469 L 921.234375 799.855469 L 921.234375 772.59375 Z M 784.921875 799.855469 L 812.183594 799.855469 L 812.183594 772.59375 L 784.921875 772.59375 Z M 1030.28125 772.59375 L 1057.546875 772.59375 L 1057.546875 745.332031 L 1030.28125 745.332031 Z M 866.710938 745.332031 L 866.710938 772.59375 L 893.972656 772.59375 L 893.972656 745.332031 Z M 812.183594 772.59375 L 839.449219 772.59375 L 839.449219 745.332031 L 812.183594 745.332031 Z M 839.449219 718.066406 L 839.449219 745.332031 L 866.710938 745.332031 L 866.710938 718.066406 Z M 839.449219 718.066406 " fill-opacity="1" fill-rule="nonzero"/></svg>